HIERARCHY
ROOT SpineBase
{
  OFFSET 0.000000 0.000000 0.000000
  CHANNELS 6 Xposition Yposition Zposition Zrotation Xrotation Yrotation
  JOINT SpineMid
  {
    OFFSET 0.000000 36.702090 0.000000
    CHANNELS 3 Zrotation Xrotation Yrotation
    JOINT SpineShoulder
    {
      OFFSET 0.173132 27.015112 -0.751336
      CHANNELS 3 Zrotation Xrotation Yrotation
      JOINT Neck
      {
        OFFSET 0.126282 8.852870 -0.568204
        CHANNELS 3 Zrotation Xrotation Yrotation
        JOINT Head
        {
          OFFSET 1.063035 13.669874 3.977350
          CHANNELS 3 Zrotation Xrotation Yrotation
          End Site
          {
            OFFSET 0 0 0
          }
        }
      }
      JOINT ShoulderLeft
      {
        OFFSET -12.982241 -6.250444 -7.003468
        CHANNELS 3 Zrotation Xrotation Yrotation
        JOINT ElbowLeft
        {
          OFFSET -11.609770 -24.359251 8.267665
          CHANNELS 3 Zrotation Xrotation Yrotation
          JOINT WristLeft
          {
            OFFSET 6.797022 -26.990195 -8.861942
            CHANNELS 3 Zrotation Xrotation Yrotation
            JOINT HandLeft
            {
              OFFSET -1.449121 -7.493421 1.297977
              CHANNELS 3 Zrotation Xrotation Yrotation
              JOINT HandTipLeft
              {
                OFFSET -1.174811 -7.600738 0.598147
                CHANNELS 3 Zrotation Xrotation Yrotation
                End Site
                {
                  OFFSET 0 0 0
                }
              }
              JOINT ThumbLeft
              {
                OFFSET 3.538322 -1.006758 -5.027308
                CHANNELS 3 Zrotation Xrotation Yrotation
                End Site
                {
                  OFFSET 0 0 0
                }
              }
            }
          }
        }
      }
      JOINT ShoulderRight
      {
        OFFSET 15.000970 -9.223562 -11.332803
        CHANNELS 3 Zrotation Xrotation Yrotation
        JOINT ElbowRight
        {
          OFFSET 5.013285 -28.521912 1.213053
          CHANNELS 3 Zrotation Xrotation Yrotation
          JOINT WristRight
          {
            OFFSET 2.909573 -25.615669 9.043189
            CHANNELS 3 Zrotation Xrotation Yrotation
            JOINT HandRight
            {
              OFFSET -1.527939 -6.654724 2.239267
              CHANNELS 3 Zrotation Xrotation Yrotation
              JOINT HandTipRight
              {
                OFFSET 0.482118 -6.791382 0.543204
                CHANNELS 3 Zrotation Xrotation Yrotation
                End Site
                {
                  OFFSET 0 0 0
                }
              }
              JOINT ThumbRight
              {
                OFFSET 4.286509 -0.070587 -2.853646
                CHANNELS 3 Zrotation Xrotation Yrotation
                End Site
                {
                  OFFSET 0 0 0
                }
              }
            }
          }
        }
      }
    }
  }
  JOINT HipLeft
  {
    OFFSET -5.131669 0.858764 -2.511779
    CHANNELS 3 Zrotation Xrotation Yrotation
    JOINT KneeLeft
    {
      OFFSET -5.405207 -41.962433 3.539706
      CHANNELS 3 Zrotation Xrotation Yrotation
      JOINT AnkleLeft
      {
        OFFSET -1.900718 -38.335807 4.832803
        CHANNELS 3 Zrotation Xrotation Yrotation
        JOINT FootLeft
        {
          OFFSET -1.647000 -4.869688 -16.405828
          CHANNELS 3 Zrotation Xrotation Yrotation
          End Site
          {
            OFFSET 0 0 0
          }
        }
      }
    }
  }
  JOINT HipRight
  {
    OFFSET 6.619018 0.087427 -4.846530
    CHANNELS 3 Zrotation Xrotation Yrotation
    JOINT KneeRight
    {
      OFFSET -1.056258 -40.511377 3.509913
      CHANNELS 3 Zrotation Xrotation Yrotation
      JOINT AnkleRight
      {
        OFFSET -1.954429 -37.373224 2.306095
        CHANNELS 3 Zrotation Xrotation Yrotation
        JOINT FootRight
        {
          OFFSET -1.232479 -5.432592 -12.799773
          CHANNELS 3 Zrotation Xrotation Yrotation
          End Site
          {
            OFFSET 0 0 0
          }
        }
      }
    }
  }
}
MOTION
Frames: 6
Frame Time: 0.033333
-59.714474 86.132245 292.930808 -0.000000 0.000000 11.237777 0.000000 0.000000 -11.237777 -0.000000 0.000000 0.000000 -0.000000 0.000000 0.000000 0.000000 0.000000 0.000000 -0.000000 0.000000 0.000000 -0.000000 0.000000 0.000000 -0.000000 0.000000 0.000000 -0.000000 0.000000 0.000000 0.000000 0.000000 0.000000 0.000000 0.000000 0.000000 -0.000000 0.000000 0.000000 -0.000000 0.000000 0.000000 -0.000000 0.000000 0.000000 -0.000000 0.000000 0.000000 0.000000 0.000000 0.000000 0.000000 0.000000 0.000000 0.000000 0.000000 -11.237777 -0.000000 0.000000 0.000000 -0.000000 0.000000 0.000000 0.000000 0.000000 0.000000 0.000000 0.000000 -11.237777 -0.000000 0.000000 0.000000 -0.000000 0.000000 0.000000 0.000000 0.000000 0.000000
-59.724954 86.128600 292.919244 -0.009923 -0.000906 11.292673 0.009908 -0.001054 -11.292673 -0.000000 0.000000 0.000000 -0.000000 0.000000 0.000000 0.000000 0.000000 0.000000 -0.000000 0.000000 0.000000 -0.000000 0.000000 0.000000 -0.000000 0.000000 0.000000 1.070297 0.492782 0.003466 0.000000 0.000000 0.000000 0.000000 0.000000 0.000000 -0.000000 0.000000 0.000000 -0.000000 0.000000 0.000000 -0.000000 0.000000 0.000000 0.533992 0.729107 0.091090 0.000000 0.000000 0.000000 0.000000 0.000000 0.000000 0.009908 -0.001054 -11.292673 -0.000000 0.000000 0.000000 0.714626 -2.891058 -1.546167 0.000000 0.000000 0.000000 0.009908 -0.001054 -11.292673 -0.000000 0.000000 0.000000 0.512580 2.889369 -1.772593 0.000000 0.000000 0.000000
-59.734253 86.121643 292.907687 -0.019979 0.005105 11.356712 0.018583 -0.008939 -11.356710 -0.000000 0.000000 0.000000 -0.000000 0.000000 0.000000 0.000000 0.000000 0.000000 -0.000000 0.000000 0.000000 -0.000000 0.000000 0.000000 -1.098028 -0.103245 -0.170881 2.961785 1.020087 0.157061 0.000000 0.000000 0.000000 0.000000 0.000000 0.000000 -0.000000 0.000000 0.000000 -0.000000 0.000000 0.000000 -0.000000 0.000000 0.000000 0.877501 1.091941 0.139375 0.000000 0.000000 0.000000 0.000000 0.000000 0.000000 0.018583 -0.008939 -11.356710 -0.000000 0.000000 0.000000 1.383371 -5.934960 -3.140623 0.000000 0.000000 0.000000 0.018583 -0.008939 -11.356710 -0.000000 0.000000 0.000000 0.804048 4.250356 -2.660138 0.000000 0.000000 0.000000
-59.742371 86.111375 292.896139 -0.030168 0.018034 11.429859 0.025996 -0.023655 -11.429849 -0.000000 0.000000 0.000000 -0.000000 0.000000 0.000000 0.000000 0.000000 0.000000 -0.113388 -0.753576 0.319070 0.117593 0.752931 -0.320589 -1.456361 -0.099045 -0.233773 3.846220 1.363208 0.195934 0.000000 0.000000 0.000000 0.000000 0.000000 0.000000 -0.000000 0.000000 0.000000 -0.000000 0.000000 0.000000 0.812770 -0.439949 0.377756 0.228005 1.526390 -0.229656 0.000000 0.000000 0.000000 0.000000 0.000000 0.000000 0.025996 -0.023655 -11.429849 -0.000000 0.000000 0.000000 1.972990 -8.993842 -4.720630 0.000000 0.000000 0.000000 0.025996 -0.023655 -11.429849 -0.000000 0.000000 0.000000 0.878726 4.441318 -2.855977 0.000000 0.000000 0.000000
-59.749308 86.097794 292.884599 -0.040487 0.037879 11.512059 0.032113 -0.045197 -11.512033 -0.000000 0.000000 0.000000 -0.000000 0.000000 0.000000 0.000000 0.000000 0.000000 -0.144829 -0.918622 0.386228 0.151037 0.917622 -0.388599 -1.686187 -0.058013 -0.280905 4.337609 1.595631 0.215209 0.000000 0.000000 0.000000 0.000000 0.000000 0.000000 -0.000000 0.000000 0.000000 -0.000000 0.000000 0.000000 1.014595 -0.331277 0.420852 -0.012330 1.051347 -0.296410 0.000000 0.000000 0.000000 0.000000 0.000000 0.000000 0.032113 -0.045197 -11.512033 -0.000000 0.000000 0.000000 2.456348 -11.880651 -6.204320 0.000000 0.000000 0.000000 0.032113 -0.045197 -11.512033 -0.000000 0.000000 0.000000 0.739675 3.510068 -2.392427 0.000000 0.000000 0.000000
-59.755063 86.080901 292.873068 -0.050935 0.064636 11.603237 0.036893 -0.073560 -11.603185 -0.000000 0.000000 0.000000 -0.000000 0.000000 0.000000 0.000000 0.000000 0.000000 -0.173382 -1.040441 0.433821 0.181284 1.039093 -0.437040 -1.787094 0.019532 -0.312117 4.435932 1.717719 0.217059 0.000000 0.000000 0.000000 0.000000 0.000000 0.000000 -0.000000 0.000000 0.000000 -0.000000 0.000000 0.000000 1.183578 -0.097641 0.422586 -1.182828 0.106346 -0.420480 0.000000 0.000000 0.000000 0.000000 0.000000 0.000000 0.036893 -0.073560 -11.603185 -0.000000 0.000000 0.000000 2.819047 -14.379434 -7.496864 0.000000 0.000000 0.000000 0.036893 -0.073560 -11.603185 -0.000000 0.000000 0.000000 0.383489 1.220080 -1.156265 0.000000 0.000000 0.000000
